%TF.GenerationSoftware,KiCad,Pcbnew,10.0.6*%
%TF.CreationDate,2026-10-06T20:03:53+02:00*%
%TF.ProjectId,picozorro-one-th,7069636f-7a6f-4727-926f-2d6f6e652d74,A*%
%TF.SameCoordinates,Original*%
%TF.FileFunction,Legend,Bot*%
%TF.FilePolarity,Positive*%
%FSLAX46Y46*%
G04 Gerber Fmt 4.6, Leading zero omitted, Abs format (unit mm)*
G04 Created by KiCad (PCBNEW 10.0.6) date 2026-10-06 20:03:53*
%MOMM*%
%LPD*%
G01*
G04 APERTURE LIST*
G04 Aperture macros list*
%AMRoundRect*
0 Rectangle with rounded corners*
0 $1 Rounding radius*
0 $2 $3 $4 $5 $6 $7 $8 $9 X,Y pos of 4 corners*
0 Add a 4 corners polygon primitive as box body*
4,1,4,$2,$3,$4,$5,$6,$7,$8,$9,$2,$3,0*
0 Add four circle primitives for the rounded corners*
1,1,$1+$1,$2,$3*
1,1,$1+$1,$4,$5*
1,1,$1+$1,$6,$7*
1,1,$1+$1,$8,$9*
0 Add four rect primitives between the rounded corners*
20,1,$1+$1,$2,$3,$4,$5,0*
20,1,$1+$1,$4,$5,$6,$7,0*
20,1,$1+$1,$6,$7,$8,$9,0*
20,1,$1+$1,$8,$9,$2,$3,0*%
G04 Aperture macros list end*
%ADD10C,0.150000*%
%ADD11C,3.500000*%
%ADD12R,2.000000X1.905000*%
%ADD13O,2.000000X1.905000*%
%ADD14R,1.050000X1.500000*%
%ADD15O,1.050000X1.500000*%
%ADD16RoundRect,0.250000X0.500000X-0.550000X0.500000X0.550000X-0.500000X0.550000X-0.500000X-0.550000X0*%
%ADD17C,1.600000*%
%ADD18C,3.000000*%
%ADD19R,1.700000X1.700000*%
%ADD20C,1.700000*%
%ADD21R,1.650000X7.020000*%
%ADD22RoundRect,0.250000X-0.550000X-0.550000X0.550000X-0.550000X0.550000X0.550000X-0.550000X0.550000X0*%
%ADD23C,1.710000*%
%ADD24RoundRect,0.249999X-0.850001X-0.850001X0.850001X-0.850001X0.850001X0.850001X-0.850001X0.850001X0*%
%ADD25C,2.200000*%
G04 APERTURE END LIST*
D10*
X38436666Y-111754819D02*
X38246190Y-111754819D01*
X38246190Y-111754819D02*
X38150952Y-111707200D01*
X38150952Y-111707200D02*
X38103333Y-111659580D01*
X38103333Y-111659580D02*
X38008095Y-111516723D01*
X38008095Y-111516723D02*
X37960476Y-111326247D01*
X37960476Y-111326247D02*
X37960476Y-110945295D01*
X37960476Y-110945295D02*
X38008095Y-110850057D01*
X38008095Y-110850057D02*
X38055714Y-110802438D01*
X38055714Y-110802438D02*
X38150952Y-110754819D01*
X38150952Y-110754819D02*
X38341428Y-110754819D01*
X38341428Y-110754819D02*
X38436666Y-110802438D01*
X38436666Y-110802438D02*
X38484285Y-110850057D01*
X38484285Y-110850057D02*
X38531904Y-110945295D01*
X38531904Y-110945295D02*
X38531904Y-111183390D01*
X38531904Y-111183390D02*
X38484285Y-111278628D01*
X38484285Y-111278628D02*
X38436666Y-111326247D01*
X38436666Y-111326247D02*
X38341428Y-111373866D01*
X38341428Y-111373866D02*
X38150952Y-111373866D01*
X38150952Y-111373866D02*
X38055714Y-111326247D01*
X38055714Y-111326247D02*
X38008095Y-111278628D01*
X38008095Y-111278628D02*
X37960476Y-111183390D01*
X37484285Y-111754819D02*
X37293809Y-111754819D01*
X37293809Y-111754819D02*
X37198571Y-111707200D01*
X37198571Y-111707200D02*
X37150952Y-111659580D01*
X37150952Y-111659580D02*
X37055714Y-111516723D01*
X37055714Y-111516723D02*
X37008095Y-111326247D01*
X37008095Y-111326247D02*
X37008095Y-110945295D01*
X37008095Y-110945295D02*
X37055714Y-110850057D01*
X37055714Y-110850057D02*
X37103333Y-110802438D01*
X37103333Y-110802438D02*
X37198571Y-110754819D01*
X37198571Y-110754819D02*
X37389047Y-110754819D01*
X37389047Y-110754819D02*
X37484285Y-110802438D01*
X37484285Y-110802438D02*
X37531904Y-110850057D01*
X37531904Y-110850057D02*
X37579523Y-110945295D01*
X37579523Y-110945295D02*
X37579523Y-111183390D01*
X37579523Y-111183390D02*
X37531904Y-111278628D01*
X37531904Y-111278628D02*
X37484285Y-111326247D01*
X37484285Y-111326247D02*
X37389047Y-111373866D01*
X37389047Y-111373866D02*
X37198571Y-111373866D01*
X37198571Y-111373866D02*
X37103333Y-111326247D01*
X37103333Y-111326247D02*
X37055714Y-111278628D01*
X37055714Y-111278628D02*
X37008095Y-111183390D01*
X161944285Y-111754819D02*
X162515713Y-111754819D01*
X162229999Y-111754819D02*
X162229999Y-110754819D01*
X162229999Y-110754819D02*
X162325237Y-110897676D01*
X162325237Y-110897676D02*
X162420475Y-110992914D01*
X162420475Y-110992914D02*
X162515713Y-111040533D01*
%LPC*%
G36*
X35370000Y-112380000D02*
G01*
X164630000Y-112380000D01*
X164630000Y-120000000D01*
X35370000Y-120000000D01*
X35370000Y-112380000D01*
G37*
D11*
X111340000Y-81829999D03*
D12*
X128000000Y-84369999D03*
D13*
X128000000Y-81829999D03*
X128000000Y-79289999D03*
D14*
X136870000Y-93380000D03*
D15*
X138140000Y-93380000D03*
X139410000Y-93380000D03*
D16*
X176810000Y-92280000D03*
D17*
X176810000Y-89780000D03*
X176810000Y-87780000D03*
X176810000Y-85280000D03*
D18*
X179520000Y-95350000D03*
X179520000Y-82210000D03*
D19*
X182100000Y-76669999D03*
D20*
X179560000Y-76669999D03*
X177020000Y-76669999D03*
X174480000Y-76669999D03*
X171940000Y-76669999D03*
X169400000Y-76669999D03*
D19*
X70000000Y-61379999D03*
D20*
X72540000Y-61379999D03*
X75080000Y-61379999D03*
D17*
X141300000Y-86100000D03*
X141300000Y-81100000D03*
D19*
X137701666Y-70930000D03*
D20*
X137701666Y-68390000D03*
X137701666Y-65850000D03*
X137701666Y-63310000D03*
X137701666Y-60770000D03*
X137701666Y-58230000D03*
D17*
X120200000Y-93880000D03*
X130360000Y-93880000D03*
D19*
X131351666Y-71565000D03*
D20*
X128811666Y-71565000D03*
X126271666Y-71565000D03*
X123731666Y-71565000D03*
X121191666Y-71565000D03*
X118651666Y-71565000D03*
X116111666Y-71565000D03*
X113571666Y-71565000D03*
X111031666Y-71565000D03*
D19*
X182100000Y-56350000D03*
D20*
X179560000Y-56350000D03*
X177020000Y-56350000D03*
X174480000Y-56350000D03*
X171940000Y-56350000D03*
X169400000Y-56350000D03*
D21*
X162230000Y-115890000D03*
X159690000Y-115890000D03*
X157150000Y-115890000D03*
X154610000Y-115890000D03*
X152070000Y-115890000D03*
X149530000Y-115890000D03*
X146990000Y-115890000D03*
X144450000Y-115890000D03*
X141910000Y-115890000D03*
X139370000Y-115890000D03*
X136830000Y-115890000D03*
X134290000Y-115890000D03*
X131750000Y-115890000D03*
X129210000Y-115890000D03*
X126670000Y-115890000D03*
X124130000Y-115890000D03*
X121590000Y-115890000D03*
X119050000Y-115890000D03*
X116510000Y-115890000D03*
X113970000Y-115890000D03*
X111430000Y-115890000D03*
X108890000Y-115890000D03*
X106350000Y-115890000D03*
X103810000Y-115890000D03*
X101270000Y-115890000D03*
X98730000Y-115890000D03*
X96190000Y-115890000D03*
X93650000Y-115890000D03*
X91110000Y-115890000D03*
X88570000Y-115890000D03*
X86030000Y-115890000D03*
X83490000Y-115890000D03*
X80950000Y-115890000D03*
X78410000Y-115890000D03*
X75870000Y-115890000D03*
X73330000Y-115890000D03*
X70790000Y-115890000D03*
X68250000Y-115890000D03*
X65710000Y-115890000D03*
X63170000Y-115890000D03*
X60630000Y-115890000D03*
X58090000Y-115890000D03*
X55550000Y-115890000D03*
X53010000Y-115890000D03*
X50470000Y-115890000D03*
X47930000Y-115890000D03*
X45390000Y-115890000D03*
X42850000Y-115890000D03*
X40310000Y-115890000D03*
X37770000Y-115890000D03*
D19*
X158329999Y-80479999D03*
D20*
X158329999Y-83019999D03*
X155789999Y-80479999D03*
X155789999Y-83019999D03*
X153249999Y-80479999D03*
X153249999Y-83019999D03*
X150709999Y-80479999D03*
X150709999Y-83019999D03*
X148169999Y-80479999D03*
X148169999Y-83019999D03*
D19*
X144998333Y-74080000D03*
D20*
X147538333Y-74080000D03*
X150078333Y-74080000D03*
X152618333Y-74080000D03*
X155158333Y-74080000D03*
X157698333Y-74080000D03*
D22*
X153500000Y-92880000D03*
D17*
X156000000Y-92880000D03*
D19*
X103175000Y-69949999D03*
D20*
X103175000Y-72489999D03*
X100635000Y-69949999D03*
X100635000Y-72489999D03*
X98095000Y-69949999D03*
X98095000Y-72489999D03*
X95555000Y-69949999D03*
X95555000Y-72489999D03*
X93015000Y-69949999D03*
X93015000Y-72489999D03*
X90475000Y-69949999D03*
X90475000Y-72489999D03*
X87935000Y-69949999D03*
X87935000Y-72489999D03*
X85395000Y-69949999D03*
X85395000Y-72489999D03*
D19*
X52000000Y-61379999D03*
D20*
X54540000Y-61379999D03*
X57080000Y-61379999D03*
D23*
X164500000Y-83060000D03*
X169600000Y-84260000D03*
D19*
X80315000Y-69949999D03*
D20*
X82855000Y-69949999D03*
X80315000Y-72489999D03*
X82855000Y-72489999D03*
X80315000Y-75029999D03*
X82855000Y-75029999D03*
X80315000Y-77569999D03*
X82855000Y-77569999D03*
X80315000Y-80109999D03*
X82855000Y-80109999D03*
X80315000Y-82649999D03*
X82855000Y-82649999D03*
X80315000Y-85189999D03*
X82855000Y-85189999D03*
X80315000Y-87729999D03*
X82855000Y-87729999D03*
D19*
X80315000Y-92810000D03*
D20*
X80315000Y-90270000D03*
X82855000Y-92810000D03*
X82855000Y-90270000D03*
X85395000Y-92810000D03*
X85395000Y-90270000D03*
X87935000Y-92810000D03*
X87935000Y-90270000D03*
X90475000Y-92810000D03*
X90475000Y-90270000D03*
X93015000Y-92810000D03*
X93015000Y-90270000D03*
X95555000Y-92810000D03*
X95555000Y-90270000D03*
X98095000Y-92810000D03*
X98095000Y-90270000D03*
D22*
X164000000Y-93130000D03*
D17*
X167500000Y-93130000D03*
X134350000Y-86100000D03*
X134350000Y-81100000D03*
D24*
X152500000Y-103380000D03*
D25*
X162660000Y-103380000D03*
D19*
X103175000Y-92810000D03*
D20*
X100635000Y-92810000D03*
X103175000Y-90270000D03*
X100635000Y-90270000D03*
X103175000Y-87730000D03*
X100635000Y-87730000D03*
X103175000Y-85190000D03*
X100635000Y-85190000D03*
X103175000Y-82650000D03*
X100635000Y-82650000D03*
X103175000Y-80110000D03*
X100635000Y-80110000D03*
X103175000Y-77570000D03*
X100635000Y-77570000D03*
X103175000Y-75030000D03*
X100635000Y-75030000D03*
%LPD*%
M02*
