%TF.GenerationSoftware,KiCad,Pcbnew,10.0.6*%
%TF.CreationDate,2026-10-06T20:03:54+02:00*%
%TF.ProjectId,picozorro-one-th,7069636f-7a6f-4727-926f-2d6f6e652d74,A*%
%TF.SameCoordinates,Original*%
%TF.FileFunction,Drillmap*%
%TF.FilePolarity,Positive*%
%FSLAX45Y45*%
G04 Gerber Fmt 4.5, Leading zero omitted, Abs format (unit mm)*
G04 Created by KiCad (PCBNEW 10.0.6) date 2026-10-06 20:03:54*
%MOMM*%
%LPD*%
G01*
G04 APERTURE LIST*
%ADD10C,0.100000*%
%ADD11C,0.200000*%
%ADD12C,0.350000*%
G04 APERTURE END LIST*
D10*
X3300000Y-5408000D02*
X18850000Y-5408000D01*
X3300000Y-11238000D02*
X3300000Y-5408000D01*
X3387000Y-11238000D02*
X3300000Y-11238000D01*
X3387000Y-11238000D02*
G75*
G02*
X3537000Y-11388000I0J-150000D01*
G01*
X3537000Y-11850000D02*
X3537000Y-11388000D01*
X3687000Y-12000000D02*
X3537000Y-11850000D01*
X10000000Y-12000000D02*
X3687000Y-12000000D01*
X10000000Y-12000000D02*
X16313000Y-12000000D01*
X16313000Y-12000000D02*
X16463000Y-11850000D01*
X16463000Y-11388000D02*
G75*
G02*
X16613000Y-11238000I150000J0D01*
G01*
X16463000Y-11850000D02*
X16463000Y-11388000D01*
X16613000Y-11238000D02*
X18850000Y-11238000D01*
X18850000Y-11238000D02*
X18850000Y-5408000D01*
D11*
D12*
X10959000Y-8008000D02*
X11309000Y-8358000D01*
X11309000Y-8008000D02*
X10959000Y-8358000D01*
D11*
X3555777Y-12316484D02*
X3555777Y-12116484D01*
X3555777Y-12116484D02*
X3603396Y-12116484D01*
X3603396Y-12116484D02*
X3631967Y-12126008D01*
X3631967Y-12126008D02*
X3651015Y-12145055D01*
X3651015Y-12145055D02*
X3660539Y-12164103D01*
X3660539Y-12164103D02*
X3670062Y-12202198D01*
X3670062Y-12202198D02*
X3670062Y-12230769D01*
X3670062Y-12230769D02*
X3660539Y-12268865D01*
X3660539Y-12268865D02*
X3651015Y-12287912D01*
X3651015Y-12287912D02*
X3631967Y-12306960D01*
X3631967Y-12306960D02*
X3603396Y-12316484D01*
X3603396Y-12316484D02*
X3555777Y-12316484D01*
X3755777Y-12316484D02*
X3755777Y-12183150D01*
X3755777Y-12221246D02*
X3765301Y-12202198D01*
X3765301Y-12202198D02*
X3774824Y-12192674D01*
X3774824Y-12192674D02*
X3793872Y-12183150D01*
X3793872Y-12183150D02*
X3812920Y-12183150D01*
X3879586Y-12316484D02*
X3879586Y-12183150D01*
X3879586Y-12116484D02*
X3870062Y-12126008D01*
X3870062Y-12126008D02*
X3879586Y-12135531D01*
X3879586Y-12135531D02*
X3889110Y-12126008D01*
X3889110Y-12126008D02*
X3879586Y-12116484D01*
X3879586Y-12116484D02*
X3879586Y-12135531D01*
X4003396Y-12316484D02*
X3984348Y-12306960D01*
X3984348Y-12306960D02*
X3974824Y-12287912D01*
X3974824Y-12287912D02*
X3974824Y-12116484D01*
X4108158Y-12316484D02*
X4089110Y-12306960D01*
X4089110Y-12306960D02*
X4079586Y-12287912D01*
X4079586Y-12287912D02*
X4079586Y-12116484D01*
X4336729Y-12316484D02*
X4336729Y-12116484D01*
X4336729Y-12116484D02*
X4403396Y-12259341D01*
X4403396Y-12259341D02*
X4470063Y-12116484D01*
X4470063Y-12116484D02*
X4470063Y-12316484D01*
X4651015Y-12316484D02*
X4651015Y-12211722D01*
X4651015Y-12211722D02*
X4641491Y-12192674D01*
X4641491Y-12192674D02*
X4622444Y-12183150D01*
X4622444Y-12183150D02*
X4584348Y-12183150D01*
X4584348Y-12183150D02*
X4565301Y-12192674D01*
X4651015Y-12306960D02*
X4631967Y-12316484D01*
X4631967Y-12316484D02*
X4584348Y-12316484D01*
X4584348Y-12316484D02*
X4565301Y-12306960D01*
X4565301Y-12306960D02*
X4555777Y-12287912D01*
X4555777Y-12287912D02*
X4555777Y-12268865D01*
X4555777Y-12268865D02*
X4565301Y-12249817D01*
X4565301Y-12249817D02*
X4584348Y-12240293D01*
X4584348Y-12240293D02*
X4631967Y-12240293D01*
X4631967Y-12240293D02*
X4651015Y-12230769D01*
X4746253Y-12183150D02*
X4746253Y-12383150D01*
X4746253Y-12192674D02*
X4765301Y-12183150D01*
X4765301Y-12183150D02*
X4803396Y-12183150D01*
X4803396Y-12183150D02*
X4822444Y-12192674D01*
X4822444Y-12192674D02*
X4831967Y-12202198D01*
X4831967Y-12202198D02*
X4841491Y-12221246D01*
X4841491Y-12221246D02*
X4841491Y-12278388D01*
X4841491Y-12278388D02*
X4831967Y-12297436D01*
X4831967Y-12297436D02*
X4822444Y-12306960D01*
X4822444Y-12306960D02*
X4803396Y-12316484D01*
X4803396Y-12316484D02*
X4765301Y-12316484D01*
X4765301Y-12316484D02*
X4746253Y-12306960D01*
X4927205Y-12297436D02*
X4936729Y-12306960D01*
X4936729Y-12306960D02*
X4927205Y-12316484D01*
X4927205Y-12316484D02*
X4917682Y-12306960D01*
X4917682Y-12306960D02*
X4927205Y-12297436D01*
X4927205Y-12297436D02*
X4927205Y-12316484D01*
X4927205Y-12192674D02*
X4936729Y-12202198D01*
X4936729Y-12202198D02*
X4927205Y-12211722D01*
X4927205Y-12211722D02*
X4917682Y-12202198D01*
X4917682Y-12202198D02*
X4927205Y-12192674D01*
X4927205Y-12192674D02*
X4927205Y-12211722D01*
X3095000Y-12545000D02*
X3295000Y-12745000D01*
X3295000Y-12545000D02*
X3095000Y-12745000D01*
X3536729Y-12536484D02*
X3660539Y-12536484D01*
X3660539Y-12536484D02*
X3593872Y-12612674D01*
X3593872Y-12612674D02*
X3622443Y-12612674D01*
X3622443Y-12612674D02*
X3641491Y-12622198D01*
X3641491Y-12622198D02*
X3651015Y-12631722D01*
X3651015Y-12631722D02*
X3660539Y-12650769D01*
X3660539Y-12650769D02*
X3660539Y-12698388D01*
X3660539Y-12698388D02*
X3651015Y-12717436D01*
X3651015Y-12717436D02*
X3641491Y-12726960D01*
X3641491Y-12726960D02*
X3622443Y-12736484D01*
X3622443Y-12736484D02*
X3565301Y-12736484D01*
X3565301Y-12736484D02*
X3546253Y-12726960D01*
X3546253Y-12726960D02*
X3536729Y-12717436D01*
X3755777Y-12726960D02*
X3755777Y-12736484D01*
X3755777Y-12736484D02*
X3746253Y-12755531D01*
X3746253Y-12755531D02*
X3736729Y-12765055D01*
X3936729Y-12536484D02*
X3841491Y-12536484D01*
X3841491Y-12536484D02*
X3831967Y-12631722D01*
X3831967Y-12631722D02*
X3841491Y-12622198D01*
X3841491Y-12622198D02*
X3860539Y-12612674D01*
X3860539Y-12612674D02*
X3908158Y-12612674D01*
X3908158Y-12612674D02*
X3927205Y-12622198D01*
X3927205Y-12622198D02*
X3936729Y-12631722D01*
X3936729Y-12631722D02*
X3946253Y-12650769D01*
X3946253Y-12650769D02*
X3946253Y-12698388D01*
X3946253Y-12698388D02*
X3936729Y-12717436D01*
X3936729Y-12717436D02*
X3927205Y-12726960D01*
X3927205Y-12726960D02*
X3908158Y-12736484D01*
X3908158Y-12736484D02*
X3860539Y-12736484D01*
X3860539Y-12736484D02*
X3841491Y-12726960D01*
X3841491Y-12726960D02*
X3831967Y-12717436D01*
X4070062Y-12536484D02*
X4089110Y-12536484D01*
X4089110Y-12536484D02*
X4108158Y-12546008D01*
X4108158Y-12546008D02*
X4117682Y-12555531D01*
X4117682Y-12555531D02*
X4127205Y-12574579D01*
X4127205Y-12574579D02*
X4136729Y-12612674D01*
X4136729Y-12612674D02*
X4136729Y-12660293D01*
X4136729Y-12660293D02*
X4127205Y-12698388D01*
X4127205Y-12698388D02*
X4117682Y-12717436D01*
X4117682Y-12717436D02*
X4108158Y-12726960D01*
X4108158Y-12726960D02*
X4089110Y-12736484D01*
X4089110Y-12736484D02*
X4070062Y-12736484D01*
X4070062Y-12736484D02*
X4051015Y-12726960D01*
X4051015Y-12726960D02*
X4041491Y-12717436D01*
X4041491Y-12717436D02*
X4031967Y-12698388D01*
X4031967Y-12698388D02*
X4022443Y-12660293D01*
X4022443Y-12660293D02*
X4022443Y-12612674D01*
X4022443Y-12612674D02*
X4031967Y-12574579D01*
X4031967Y-12574579D02*
X4041491Y-12555531D01*
X4041491Y-12555531D02*
X4051015Y-12546008D01*
X4051015Y-12546008D02*
X4070062Y-12536484D01*
X4260539Y-12536484D02*
X4279586Y-12536484D01*
X4279586Y-12536484D02*
X4298634Y-12546008D01*
X4298634Y-12546008D02*
X4308158Y-12555531D01*
X4308158Y-12555531D02*
X4317682Y-12574579D01*
X4317682Y-12574579D02*
X4327205Y-12612674D01*
X4327205Y-12612674D02*
X4327205Y-12660293D01*
X4327205Y-12660293D02*
X4317682Y-12698388D01*
X4317682Y-12698388D02*
X4308158Y-12717436D01*
X4308158Y-12717436D02*
X4298634Y-12726960D01*
X4298634Y-12726960D02*
X4279586Y-12736484D01*
X4279586Y-12736484D02*
X4260539Y-12736484D01*
X4260539Y-12736484D02*
X4241491Y-12726960D01*
X4241491Y-12726960D02*
X4231967Y-12717436D01*
X4231967Y-12717436D02*
X4222444Y-12698388D01*
X4222444Y-12698388D02*
X4212920Y-12660293D01*
X4212920Y-12660293D02*
X4212920Y-12612674D01*
X4212920Y-12612674D02*
X4222444Y-12574579D01*
X4222444Y-12574579D02*
X4231967Y-12555531D01*
X4231967Y-12555531D02*
X4241491Y-12546008D01*
X4241491Y-12546008D02*
X4260539Y-12536484D01*
X4412920Y-12736484D02*
X4412920Y-12603150D01*
X4412920Y-12622198D02*
X4422444Y-12612674D01*
X4422444Y-12612674D02*
X4441491Y-12603150D01*
X4441491Y-12603150D02*
X4470063Y-12603150D01*
X4470063Y-12603150D02*
X4489110Y-12612674D01*
X4489110Y-12612674D02*
X4498634Y-12631722D01*
X4498634Y-12631722D02*
X4498634Y-12736484D01*
X4498634Y-12631722D02*
X4508158Y-12612674D01*
X4508158Y-12612674D02*
X4527205Y-12603150D01*
X4527205Y-12603150D02*
X4555777Y-12603150D01*
X4555777Y-12603150D02*
X4574825Y-12612674D01*
X4574825Y-12612674D02*
X4584348Y-12631722D01*
X4584348Y-12631722D02*
X4584348Y-12736484D01*
X4679586Y-12736484D02*
X4679586Y-12603150D01*
X4679586Y-12622198D02*
X4689110Y-12612674D01*
X4689110Y-12612674D02*
X4708158Y-12603150D01*
X4708158Y-12603150D02*
X4736729Y-12603150D01*
X4736729Y-12603150D02*
X4755777Y-12612674D01*
X4755777Y-12612674D02*
X4765301Y-12631722D01*
X4765301Y-12631722D02*
X4765301Y-12736484D01*
X4765301Y-12631722D02*
X4774825Y-12612674D01*
X4774825Y-12612674D02*
X4793872Y-12603150D01*
X4793872Y-12603150D02*
X4822444Y-12603150D01*
X4822444Y-12603150D02*
X4841491Y-12612674D01*
X4841491Y-12612674D02*
X4851015Y-12631722D01*
X4851015Y-12631722D02*
X4851015Y-12736484D01*
X5241491Y-12526960D02*
X5070063Y-12784103D01*
X5498634Y-12536484D02*
X5517682Y-12536484D01*
X5517682Y-12536484D02*
X5536729Y-12546008D01*
X5536729Y-12546008D02*
X5546253Y-12555531D01*
X5546253Y-12555531D02*
X5555777Y-12574579D01*
X5555777Y-12574579D02*
X5565301Y-12612674D01*
X5565301Y-12612674D02*
X5565301Y-12660293D01*
X5565301Y-12660293D02*
X5555777Y-12698388D01*
X5555777Y-12698388D02*
X5546253Y-12717436D01*
X5546253Y-12717436D02*
X5536729Y-12726960D01*
X5536729Y-12726960D02*
X5517682Y-12736484D01*
X5517682Y-12736484D02*
X5498634Y-12736484D01*
X5498634Y-12736484D02*
X5479587Y-12726960D01*
X5479587Y-12726960D02*
X5470063Y-12717436D01*
X5470063Y-12717436D02*
X5460539Y-12698388D01*
X5460539Y-12698388D02*
X5451015Y-12660293D01*
X5451015Y-12660293D02*
X5451015Y-12612674D01*
X5451015Y-12612674D02*
X5460539Y-12574579D01*
X5460539Y-12574579D02*
X5470063Y-12555531D01*
X5470063Y-12555531D02*
X5479587Y-12546008D01*
X5479587Y-12546008D02*
X5498634Y-12536484D01*
X5660539Y-12726960D02*
X5660539Y-12736484D01*
X5660539Y-12736484D02*
X5651015Y-12755531D01*
X5651015Y-12755531D02*
X5641491Y-12765055D01*
X5851015Y-12736484D02*
X5736729Y-12736484D01*
X5793872Y-12736484D02*
X5793872Y-12536484D01*
X5793872Y-12536484D02*
X5774825Y-12565055D01*
X5774825Y-12565055D02*
X5755777Y-12584103D01*
X5755777Y-12584103D02*
X5736729Y-12593627D01*
X5917682Y-12536484D02*
X6041491Y-12536484D01*
X6041491Y-12536484D02*
X5974825Y-12612674D01*
X5974825Y-12612674D02*
X6003396Y-12612674D01*
X6003396Y-12612674D02*
X6022444Y-12622198D01*
X6022444Y-12622198D02*
X6031967Y-12631722D01*
X6031967Y-12631722D02*
X6041491Y-12650769D01*
X6041491Y-12650769D02*
X6041491Y-12698388D01*
X6041491Y-12698388D02*
X6031967Y-12717436D01*
X6031967Y-12717436D02*
X6022444Y-12726960D01*
X6022444Y-12726960D02*
X6003396Y-12736484D01*
X6003396Y-12736484D02*
X5946253Y-12736484D01*
X5946253Y-12736484D02*
X5927206Y-12726960D01*
X5927206Y-12726960D02*
X5917682Y-12717436D01*
X6108158Y-12536484D02*
X6241491Y-12536484D01*
X6241491Y-12536484D02*
X6155777Y-12736484D01*
X6346253Y-12622198D02*
X6327206Y-12612674D01*
X6327206Y-12612674D02*
X6317682Y-12603150D01*
X6317682Y-12603150D02*
X6308158Y-12584103D01*
X6308158Y-12584103D02*
X6308158Y-12574579D01*
X6308158Y-12574579D02*
X6317682Y-12555531D01*
X6317682Y-12555531D02*
X6327206Y-12546008D01*
X6327206Y-12546008D02*
X6346253Y-12536484D01*
X6346253Y-12536484D02*
X6384348Y-12536484D01*
X6384348Y-12536484D02*
X6403396Y-12546008D01*
X6403396Y-12546008D02*
X6412920Y-12555531D01*
X6412920Y-12555531D02*
X6422444Y-12574579D01*
X6422444Y-12574579D02*
X6422444Y-12584103D01*
X6422444Y-12584103D02*
X6412920Y-12603150D01*
X6412920Y-12603150D02*
X6403396Y-12612674D01*
X6403396Y-12612674D02*
X6384348Y-12622198D01*
X6384348Y-12622198D02*
X6346253Y-12622198D01*
X6346253Y-12622198D02*
X6327206Y-12631722D01*
X6327206Y-12631722D02*
X6317682Y-12641246D01*
X6317682Y-12641246D02*
X6308158Y-12660293D01*
X6308158Y-12660293D02*
X6308158Y-12698388D01*
X6308158Y-12698388D02*
X6317682Y-12717436D01*
X6317682Y-12717436D02*
X6327206Y-12726960D01*
X6327206Y-12726960D02*
X6346253Y-12736484D01*
X6346253Y-12736484D02*
X6384348Y-12736484D01*
X6384348Y-12736484D02*
X6403396Y-12726960D01*
X6403396Y-12726960D02*
X6412920Y-12717436D01*
X6412920Y-12717436D02*
X6422444Y-12698388D01*
X6422444Y-12698388D02*
X6422444Y-12660293D01*
X6422444Y-12660293D02*
X6412920Y-12641246D01*
X6412920Y-12641246D02*
X6403396Y-12631722D01*
X6403396Y-12631722D02*
X6384348Y-12622198D01*
X6498634Y-12536484D02*
X6498634Y-12574579D01*
X6574825Y-12536484D02*
X6574825Y-12574579D01*
X6870063Y-12812674D02*
X6860539Y-12803150D01*
X6860539Y-12803150D02*
X6841491Y-12774579D01*
X6841491Y-12774579D02*
X6831968Y-12755531D01*
X6831968Y-12755531D02*
X6822444Y-12726960D01*
X6822444Y-12726960D02*
X6812920Y-12679341D01*
X6812920Y-12679341D02*
X6812920Y-12641246D01*
X6812920Y-12641246D02*
X6822444Y-12593627D01*
X6822444Y-12593627D02*
X6831968Y-12565055D01*
X6831968Y-12565055D02*
X6841491Y-12546008D01*
X6841491Y-12546008D02*
X6860539Y-12517436D01*
X6860539Y-12517436D02*
X6870063Y-12507912D01*
X7051015Y-12736484D02*
X6936729Y-12736484D01*
X6993872Y-12736484D02*
X6993872Y-12536484D01*
X6993872Y-12536484D02*
X6974825Y-12565055D01*
X6974825Y-12565055D02*
X6955777Y-12584103D01*
X6955777Y-12584103D02*
X6936729Y-12593627D01*
X7289110Y-12736484D02*
X7289110Y-12536484D01*
X7374825Y-12736484D02*
X7374825Y-12631722D01*
X7374825Y-12631722D02*
X7365301Y-12612674D01*
X7365301Y-12612674D02*
X7346253Y-12603150D01*
X7346253Y-12603150D02*
X7317682Y-12603150D01*
X7317682Y-12603150D02*
X7298634Y-12612674D01*
X7298634Y-12612674D02*
X7289110Y-12622198D01*
X7498634Y-12736484D02*
X7479587Y-12726960D01*
X7479587Y-12726960D02*
X7470063Y-12717436D01*
X7470063Y-12717436D02*
X7460539Y-12698388D01*
X7460539Y-12698388D02*
X7460539Y-12641246D01*
X7460539Y-12641246D02*
X7470063Y-12622198D01*
X7470063Y-12622198D02*
X7479587Y-12612674D01*
X7479587Y-12612674D02*
X7498634Y-12603150D01*
X7498634Y-12603150D02*
X7527206Y-12603150D01*
X7527206Y-12603150D02*
X7546253Y-12612674D01*
X7546253Y-12612674D02*
X7555777Y-12622198D01*
X7555777Y-12622198D02*
X7565301Y-12641246D01*
X7565301Y-12641246D02*
X7565301Y-12698388D01*
X7565301Y-12698388D02*
X7555777Y-12717436D01*
X7555777Y-12717436D02*
X7546253Y-12726960D01*
X7546253Y-12726960D02*
X7527206Y-12736484D01*
X7527206Y-12736484D02*
X7498634Y-12736484D01*
X7679587Y-12736484D02*
X7660539Y-12726960D01*
X7660539Y-12726960D02*
X7651015Y-12707912D01*
X7651015Y-12707912D02*
X7651015Y-12536484D01*
X7831968Y-12726960D02*
X7812920Y-12736484D01*
X7812920Y-12736484D02*
X7774825Y-12736484D01*
X7774825Y-12736484D02*
X7755777Y-12726960D01*
X7755777Y-12726960D02*
X7746253Y-12707912D01*
X7746253Y-12707912D02*
X7746253Y-12631722D01*
X7746253Y-12631722D02*
X7755777Y-12612674D01*
X7755777Y-12612674D02*
X7774825Y-12603150D01*
X7774825Y-12603150D02*
X7812920Y-12603150D01*
X7812920Y-12603150D02*
X7831968Y-12612674D01*
X7831968Y-12612674D02*
X7841491Y-12631722D01*
X7841491Y-12631722D02*
X7841491Y-12650769D01*
X7841491Y-12650769D02*
X7746253Y-12669817D01*
X7908158Y-12812674D02*
X7917682Y-12803150D01*
X7917682Y-12803150D02*
X7936730Y-12774579D01*
X7936730Y-12774579D02*
X7946253Y-12755531D01*
X7946253Y-12755531D02*
X7955777Y-12726960D01*
X7955777Y-12726960D02*
X7965301Y-12679341D01*
X7965301Y-12679341D02*
X7965301Y-12641246D01*
X7965301Y-12641246D02*
X7955777Y-12593627D01*
X7955777Y-12593627D02*
X7946253Y-12565055D01*
X7946253Y-12565055D02*
X7936730Y-12546008D01*
X7936730Y-12546008D02*
X7917682Y-12517436D01*
X7917682Y-12517436D02*
X7908158Y-12507912D01*
X8270063Y-12812674D02*
X8260539Y-12803150D01*
X8260539Y-12803150D02*
X8241491Y-12774579D01*
X8241491Y-12774579D02*
X8231968Y-12755531D01*
X8231968Y-12755531D02*
X8222444Y-12726960D01*
X8222444Y-12726960D02*
X8212920Y-12679341D01*
X8212920Y-12679341D02*
X8212920Y-12641246D01*
X8212920Y-12641246D02*
X8222444Y-12593627D01*
X8222444Y-12593627D02*
X8231968Y-12565055D01*
X8231968Y-12565055D02*
X8241491Y-12546008D01*
X8241491Y-12546008D02*
X8260539Y-12517436D01*
X8260539Y-12517436D02*
X8270063Y-12507912D01*
X8346253Y-12603150D02*
X8346253Y-12736484D01*
X8346253Y-12622198D02*
X8355777Y-12612674D01*
X8355777Y-12612674D02*
X8374825Y-12603150D01*
X8374825Y-12603150D02*
X8403396Y-12603150D01*
X8403396Y-12603150D02*
X8422444Y-12612674D01*
X8422444Y-12612674D02*
X8431968Y-12631722D01*
X8431968Y-12631722D02*
X8431968Y-12736484D01*
X8555777Y-12736484D02*
X8536730Y-12726960D01*
X8536730Y-12726960D02*
X8527206Y-12717436D01*
X8527206Y-12717436D02*
X8517682Y-12698388D01*
X8517682Y-12698388D02*
X8517682Y-12641246D01*
X8517682Y-12641246D02*
X8527206Y-12622198D01*
X8527206Y-12622198D02*
X8536730Y-12612674D01*
X8536730Y-12612674D02*
X8555777Y-12603150D01*
X8555777Y-12603150D02*
X8584349Y-12603150D01*
X8584349Y-12603150D02*
X8603396Y-12612674D01*
X8603396Y-12612674D02*
X8612920Y-12622198D01*
X8612920Y-12622198D02*
X8622444Y-12641246D01*
X8622444Y-12641246D02*
X8622444Y-12698388D01*
X8622444Y-12698388D02*
X8612920Y-12717436D01*
X8612920Y-12717436D02*
X8603396Y-12726960D01*
X8603396Y-12726960D02*
X8584349Y-12736484D01*
X8584349Y-12736484D02*
X8555777Y-12736484D01*
X8679587Y-12603150D02*
X8755777Y-12603150D01*
X8708158Y-12536484D02*
X8708158Y-12707912D01*
X8708158Y-12707912D02*
X8717682Y-12726960D01*
X8717682Y-12726960D02*
X8736730Y-12736484D01*
X8736730Y-12736484D02*
X8755777Y-12736484D01*
X8974825Y-12603150D02*
X8974825Y-12803150D01*
X8974825Y-12612674D02*
X8993873Y-12603150D01*
X8993873Y-12603150D02*
X9031968Y-12603150D01*
X9031968Y-12603150D02*
X9051015Y-12612674D01*
X9051015Y-12612674D02*
X9060539Y-12622198D01*
X9060539Y-12622198D02*
X9070063Y-12641246D01*
X9070063Y-12641246D02*
X9070063Y-12698388D01*
X9070063Y-12698388D02*
X9060539Y-12717436D01*
X9060539Y-12717436D02*
X9051015Y-12726960D01*
X9051015Y-12726960D02*
X9031968Y-12736484D01*
X9031968Y-12736484D02*
X8993873Y-12736484D01*
X8993873Y-12736484D02*
X8974825Y-12726960D01*
X9184349Y-12736484D02*
X9165301Y-12726960D01*
X9165301Y-12726960D02*
X9155777Y-12707912D01*
X9155777Y-12707912D02*
X9155777Y-12536484D01*
X9346254Y-12736484D02*
X9346254Y-12631722D01*
X9346254Y-12631722D02*
X9336730Y-12612674D01*
X9336730Y-12612674D02*
X9317682Y-12603150D01*
X9317682Y-12603150D02*
X9279587Y-12603150D01*
X9279587Y-12603150D02*
X9260539Y-12612674D01*
X9346254Y-12726960D02*
X9327206Y-12736484D01*
X9327206Y-12736484D02*
X9279587Y-12736484D01*
X9279587Y-12736484D02*
X9260539Y-12726960D01*
X9260539Y-12726960D02*
X9251015Y-12707912D01*
X9251015Y-12707912D02*
X9251015Y-12688865D01*
X9251015Y-12688865D02*
X9260539Y-12669817D01*
X9260539Y-12669817D02*
X9279587Y-12660293D01*
X9279587Y-12660293D02*
X9327206Y-12660293D01*
X9327206Y-12660293D02*
X9346254Y-12650769D01*
X9412920Y-12603150D02*
X9489111Y-12603150D01*
X9441492Y-12536484D02*
X9441492Y-12707912D01*
X9441492Y-12707912D02*
X9451015Y-12726960D01*
X9451015Y-12726960D02*
X9470063Y-12736484D01*
X9470063Y-12736484D02*
X9489111Y-12736484D01*
X9631968Y-12726960D02*
X9612920Y-12736484D01*
X9612920Y-12736484D02*
X9574825Y-12736484D01*
X9574825Y-12736484D02*
X9555777Y-12726960D01*
X9555777Y-12726960D02*
X9546254Y-12707912D01*
X9546254Y-12707912D02*
X9546254Y-12631722D01*
X9546254Y-12631722D02*
X9555777Y-12612674D01*
X9555777Y-12612674D02*
X9574825Y-12603150D01*
X9574825Y-12603150D02*
X9612920Y-12603150D01*
X9612920Y-12603150D02*
X9631968Y-12612674D01*
X9631968Y-12612674D02*
X9641492Y-12631722D01*
X9641492Y-12631722D02*
X9641492Y-12650769D01*
X9641492Y-12650769D02*
X9546254Y-12669817D01*
X9812920Y-12736484D02*
X9812920Y-12536484D01*
X9812920Y-12726960D02*
X9793873Y-12736484D01*
X9793873Y-12736484D02*
X9755777Y-12736484D01*
X9755777Y-12736484D02*
X9736730Y-12726960D01*
X9736730Y-12726960D02*
X9727206Y-12717436D01*
X9727206Y-12717436D02*
X9717682Y-12698388D01*
X9717682Y-12698388D02*
X9717682Y-12641246D01*
X9717682Y-12641246D02*
X9727206Y-12622198D01*
X9727206Y-12622198D02*
X9736730Y-12612674D01*
X9736730Y-12612674D02*
X9755777Y-12603150D01*
X9755777Y-12603150D02*
X9793873Y-12603150D01*
X9793873Y-12603150D02*
X9812920Y-12612674D01*
X9889111Y-12812674D02*
X9898635Y-12803150D01*
X9898635Y-12803150D02*
X9917682Y-12774579D01*
X9917682Y-12774579D02*
X9927206Y-12755531D01*
X9927206Y-12755531D02*
X9936730Y-12726960D01*
X9936730Y-12726960D02*
X9946254Y-12679341D01*
X9946254Y-12679341D02*
X9946254Y-12641246D01*
X9946254Y-12641246D02*
X9936730Y-12593627D01*
X9936730Y-12593627D02*
X9927206Y-12565055D01*
X9927206Y-12565055D02*
X9917682Y-12546008D01*
X9917682Y-12546008D02*
X9898635Y-12517436D01*
X9898635Y-12517436D02*
X9889111Y-12507912D01*
M02*
