%TF.GenerationSoftware,KiCad,Pcbnew,10.0.6*%
%TF.CreationDate,2026-10-07T15:49:12+02:00*%
%TF.ProjectId,picozorro-one-th,7069636f-7a6f-4727-926f-2d6f6e652d74,A*%
%TF.SameCoordinates,Original*%
%TF.FileFunction,Soldermask,Top*%
%TF.FilePolarity,Negative*%
%FSLAX46Y46*%
G04 Gerber Fmt 4.6, Leading zero omitted, Abs format (unit mm)*
G04 Created by KiCad (PCBNEW 10.0.6) date 2026-10-07 15:49:12*
%MOMM*%
%LPD*%
G01*
G04 APERTURE LIST*
G04 Aperture macros list*
%AMRoundRect*
0 Rectangle with rounded corners*
0 $1 Rounding radius*
0 $2 $3 $4 $5 $6 $7 $8 $9 X,Y pos of 4 corners*
0 Add a 4 corners polygon primitive as box body*
4,1,4,$2,$3,$4,$5,$6,$7,$8,$9,$2,$3,0*
0 Add four circle primitives for the rounded corners*
1,1,$1+$1,$2,$3*
1,1,$1+$1,$4,$5*
1,1,$1+$1,$6,$7*
1,1,$1+$1,$8,$9*
0 Add four rect primitives between the rounded corners*
20,1,$1+$1,$2,$3,$4,$5,0*
20,1,$1+$1,$4,$5,$6,$7,0*
20,1,$1+$1,$6,$7,$8,$9,0*
20,1,$1+$1,$8,$9,$2,$3,0*%
%AMFreePoly0*
4,1,23,0.500000,-0.750000,0.000000,-0.750000,0.000000,-0.745722,-0.065263,-0.745722,-0.191342,-0.711940,-0.304381,-0.646677,-0.396677,-0.554381,-0.461940,-0.441342,-0.495722,-0.315263,-0.495722,-0.250000,-0.500000,-0.250000,-0.500000,0.250000,-0.495722,0.250000,-0.495722,0.315263,-0.461940,0.441342,-0.396677,0.554381,-0.304381,0.646677,-0.191342,0.711940,-0.065263,0.745722,0.000000,0.745722,
0.000000,0.750000,0.500000,0.750000,0.500000,-0.750000,0.500000,-0.750000,$1*%
%AMFreePoly1*
4,1,23,0.000000,0.745722,0.065263,0.745722,0.191342,0.711940,0.304381,0.646677,0.396677,0.554381,0.461940,0.441342,0.495722,0.315263,0.495722,0.250000,0.500000,0.250000,0.500000,-0.250000,0.495722,-0.250000,0.495722,-0.315263,0.461940,-0.441342,0.396677,-0.554381,0.304381,-0.646677,0.191342,-0.711940,0.065263,-0.745722,0.000000,-0.745722,0.000000,-0.750000,-0.500000,-0.750000,
-0.500000,0.750000,0.000000,0.750000,0.000000,0.745722,0.000000,0.745722,$1*%
%AMFreePoly2*
4,1,23,0.550000,-0.750000,0.000000,-0.750000,0.000000,-0.745722,-0.065263,-0.745722,-0.191342,-0.711940,-0.304381,-0.646677,-0.396677,-0.554381,-0.461940,-0.441342,-0.495722,-0.315263,-0.495722,-0.250000,-0.500000,-0.250000,-0.500000,0.250000,-0.495722,0.250000,-0.495722,0.315263,-0.461940,0.441342,-0.396677,0.554381,-0.304381,0.646677,-0.191342,0.711940,-0.065263,0.745722,0.000000,0.745722,
0.000000,0.750000,0.550000,0.750000,0.550000,-0.750000,0.550000,-0.750000,$1*%
%AMFreePoly3*
4,1,23,0.000000,0.745722,0.065263,0.745722,0.191342,0.711940,0.304381,0.646677,0.396677,0.554381,0.461940,0.441342,0.495722,0.315263,0.495722,0.250000,0.500000,0.250000,0.500000,-0.250000,0.495722,-0.250000,0.495722,-0.315263,0.461940,-0.441342,0.396677,-0.554381,0.304381,-0.646677,0.191342,-0.711940,0.065263,-0.745722,0.000000,-0.745722,0.000000,-0.750000,-0.550000,-0.750000,
-0.550000,0.750000,0.000000,0.750000,0.000000,0.745722,0.000000,0.745722,$1*%
G04 Aperture macros list end*
%ADD10RoundRect,0.200000X-0.275000X0.200000X-0.275000X-0.200000X0.275000X-0.200000X0.275000X0.200000X0*%
%ADD11R,0.700000X1.200000*%
%ADD12R,1.000000X0.800000*%
%ADD13R,1.000000X1.200000*%
%ADD14R,1.000000X2.800000*%
%ADD15R,1.300000X1.900000*%
%ADD16RoundRect,0.250000X-0.550000X-0.550000X0.550000X-0.550000X0.550000X0.550000X-0.550000X0.550000X0*%
%ADD17C,1.600000*%
%ADD18R,1.650000X7.020000*%
%ADD19RoundRect,0.250000X-0.650000X0.325000X-0.650000X-0.325000X0.650000X-0.325000X0.650000X0.325000X0*%
%ADD20RoundRect,0.250000X1.450000X-0.312500X1.450000X0.312500X-1.450000X0.312500X-1.450000X-0.312500X0*%
%ADD21R,1.050000X1.500000*%
%ADD22O,1.050000X1.500000*%
%ADD23R,1.700000X1.700000*%
%ADD24C,1.700000*%
%ADD25RoundRect,0.250000X-0.650000X1.000000X-0.650000X-1.000000X0.650000X-1.000000X0.650000X1.000000X0*%
%ADD26C,1.710000*%
%ADD27RoundRect,0.250000X0.475000X-0.250000X0.475000X0.250000X-0.475000X0.250000X-0.475000X-0.250000X0*%
%ADD28RoundRect,0.250000X0.500000X-0.550000X0.500000X0.550000X-0.500000X0.550000X-0.500000X-0.550000X0*%
%ADD29C,3.000000*%
%ADD30FreePoly0,0.000000*%
%ADD31FreePoly1,0.000000*%
%ADD32RoundRect,0.200000X-0.200000X-0.275000X0.200000X-0.275000X0.200000X0.275000X-0.200000X0.275000X0*%
%ADD33RoundRect,0.250000X0.550000X-0.550000X0.550000X0.550000X-0.550000X0.550000X-0.550000X-0.550000X0*%
%ADD34RoundRect,0.250000X-0.250000X-0.475000X0.250000X-0.475000X0.250000X0.475000X-0.250000X0.475000X0*%
%ADD35RoundRect,0.225000X0.250000X-0.225000X0.250000X0.225000X-0.250000X0.225000X-0.250000X-0.225000X0*%
%ADD36FreePoly2,180.000000*%
%ADD37R,1.000000X1.500000*%
%ADD38FreePoly3,180.000000*%
%ADD39RoundRect,0.375000X0.625000X0.375000X-0.625000X0.375000X-0.625000X-0.375000X0.625000X-0.375000X0*%
%ADD40RoundRect,0.500000X0.500000X1.400000X-0.500000X1.400000X-0.500000X-1.400000X0.500000X-1.400000X0*%
%ADD41RoundRect,0.150000X0.150000X-0.587500X0.150000X0.587500X-0.150000X0.587500X-0.150000X-0.587500X0*%
%ADD42RoundRect,0.250000X0.650000X-0.325000X0.650000X0.325000X-0.650000X0.325000X-0.650000X-0.325000X0*%
%ADD43C,3.500000*%
%ADD44R,2.000000X1.905000*%
%ADD45O,2.000000X1.905000*%
%ADD46RoundRect,0.249999X-0.850001X0.850001X-0.850001X-0.850001X0.850001X-0.850001X0.850001X0.850001X0*%
%ADD47C,2.200000*%
%ADD48RoundRect,0.200000X0.275000X-0.200000X0.275000X0.200000X-0.275000X0.200000X-0.275000X-0.200000X0*%
G04 APERTURE END LIST*
G36*
X35370000Y-112380000D02*
G01*
X164630000Y-112380000D01*
X164630000Y-120000000D01*
X35370000Y-120000000D01*
X35370000Y-112380000D01*
G37*
G36*
X113350000Y-92130000D02*
G01*
X113650000Y-92130000D01*
X113650000Y-93630000D01*
X113350000Y-93630000D01*
X113350000Y-92130000D01*
G37*
G36*
X137350000Y-108630000D02*
G01*
X138850000Y-108630000D01*
X138850000Y-110130000D01*
X137350000Y-110130000D01*
X137350000Y-108630000D01*
G37*
D10*
X142900000Y-69654999D03*
X142900000Y-71304999D03*
D11*
X148850000Y-71209999D03*
X149950000Y-71209999D03*
X151050000Y-71209999D03*
X152150000Y-71209999D03*
X153250000Y-71209999D03*
X154350000Y-71209999D03*
X155450000Y-71209999D03*
X156550000Y-71209999D03*
X157500000Y-71209999D03*
D12*
X158450000Y-60709999D03*
D13*
X158450000Y-66909999D03*
D14*
X158450000Y-56559999D03*
D13*
X147300000Y-71209999D03*
D15*
X144950000Y-56109999D03*
D16*
X148850000Y-93130000D03*
D17*
X151350000Y-93130000D03*
D18*
X162230000Y-115890000D03*
X159690000Y-115890000D03*
X157150000Y-115890000D03*
X154610000Y-115890000D03*
X152070000Y-115890000D03*
X149530000Y-115890000D03*
X146990000Y-115890000D03*
X144450000Y-115890000D03*
X141910000Y-115890000D03*
X139370000Y-115890000D03*
X136830000Y-115890000D03*
X134290000Y-115890000D03*
X131750000Y-115890000D03*
X129210000Y-115890000D03*
X126670000Y-115890000D03*
X124130000Y-115890000D03*
X121590000Y-115890000D03*
X119050000Y-115890000D03*
X116510000Y-115890000D03*
X113970000Y-115890000D03*
X111430000Y-115890000D03*
X108890000Y-115890000D03*
X106350000Y-115890000D03*
X103810000Y-115890000D03*
X101270000Y-115890000D03*
X98730000Y-115890000D03*
X96190000Y-115890000D03*
X93650000Y-115890000D03*
X91110000Y-115890000D03*
X88570000Y-115890000D03*
X86030000Y-115890000D03*
X83490000Y-115890000D03*
X80950000Y-115890000D03*
X78410000Y-115890000D03*
X75870000Y-115890000D03*
X73330000Y-115890000D03*
X70790000Y-115890000D03*
X68250000Y-115890000D03*
X65710000Y-115890000D03*
X63170000Y-115890000D03*
X60630000Y-115890000D03*
X58090000Y-115890000D03*
X55550000Y-115890000D03*
X53010000Y-115890000D03*
X50470000Y-115890000D03*
X47930000Y-115890000D03*
X45390000Y-115890000D03*
X42850000Y-115890000D03*
X40310000Y-115890000D03*
X37770000Y-115890000D03*
D19*
X162400000Y-101305000D03*
X162400000Y-104255000D03*
D20*
X167050000Y-86057499D03*
X167050000Y-81782499D03*
D21*
X136870000Y-93380000D03*
D22*
X138140000Y-93380000D03*
X139410000Y-93380000D03*
D23*
X144998333Y-74080000D03*
D24*
X147538333Y-74080000D03*
X150078333Y-74080000D03*
X152618333Y-74080000D03*
X155158333Y-74080000D03*
X157698333Y-74080000D03*
D25*
X158010000Y-96210000D03*
X158010000Y-100210000D03*
D26*
X164500000Y-83060000D03*
X169600000Y-84260000D03*
D19*
X147700000Y-101305000D03*
X147700000Y-104255000D03*
D10*
X142900000Y-57594999D03*
X142900000Y-59244999D03*
D27*
X159950000Y-75330000D03*
X159950000Y-73430000D03*
D28*
X176810000Y-92280000D03*
D17*
X176810000Y-89780000D03*
X176810000Y-87780000D03*
X176810000Y-85280000D03*
D29*
X179520000Y-95350000D03*
X179520000Y-82210000D03*
D16*
X165450000Y-93130000D03*
D17*
X168950000Y-93130000D03*
D30*
X112850000Y-92880000D03*
D31*
X114150000Y-92880000D03*
D32*
X124455000Y-93880000D03*
X126105000Y-93880000D03*
D33*
X141000000Y-84580000D03*
D17*
X141000000Y-82580000D03*
D34*
X141000000Y-87380000D03*
X142900000Y-87380000D03*
D10*
X142900000Y-66640000D03*
X142900000Y-68290000D03*
D35*
X142900000Y-65224999D03*
X142900000Y-63674999D03*
D23*
X80315000Y-92810000D03*
D24*
X80315000Y-90270000D03*
X82855000Y-92810000D03*
X82855000Y-90270000D03*
X85395000Y-92810000D03*
X85395000Y-90270000D03*
X87935000Y-92810000D03*
X87935000Y-90270000D03*
X90475000Y-92810000D03*
X90475000Y-90270000D03*
X93015000Y-92810000D03*
X93015000Y-90270000D03*
X95555000Y-92810000D03*
X95555000Y-90270000D03*
X98095000Y-92810000D03*
X98095000Y-90270000D03*
D23*
X80315000Y-69949999D03*
D24*
X82855000Y-69949999D03*
X80315000Y-72489999D03*
X82855000Y-72489999D03*
X80315000Y-75029999D03*
X82855000Y-75029999D03*
X80315000Y-77569999D03*
X82855000Y-77569999D03*
X80315000Y-80109999D03*
X82855000Y-80109999D03*
X80315000Y-82649999D03*
X82855000Y-82649999D03*
X80315000Y-85189999D03*
X82855000Y-85189999D03*
X80315000Y-87729999D03*
X82855000Y-87729999D03*
D23*
X103175000Y-69949999D03*
D24*
X103175000Y-72489999D03*
X100635000Y-69949999D03*
X100635000Y-72489999D03*
X98095000Y-69949999D03*
X98095000Y-72489999D03*
X95555000Y-69949999D03*
X95555000Y-72489999D03*
X93015000Y-69949999D03*
X93015000Y-72489999D03*
X90475000Y-69949999D03*
X90475000Y-72489999D03*
X87935000Y-69949999D03*
X87935000Y-72489999D03*
X85395000Y-69949999D03*
X85395000Y-72489999D03*
D36*
X139400000Y-109380000D03*
D37*
X138100000Y-109380000D03*
D38*
X136800000Y-109380000D03*
D39*
X125950000Y-84130000D03*
X125950000Y-81830000D03*
D40*
X119650000Y-81830000D03*
D39*
X125950000Y-79530000D03*
D17*
X133750000Y-86100000D03*
X133750000Y-81100000D03*
D19*
X152500000Y-101305000D03*
X152500000Y-104255000D03*
D23*
X158329999Y-80479999D03*
D24*
X158329999Y-83019999D03*
X155789999Y-80479999D03*
X155789999Y-83019999D03*
X153249999Y-80479999D03*
X153249999Y-83019999D03*
X150709999Y-80479999D03*
X150709999Y-83019999D03*
X148169999Y-80479999D03*
X148169999Y-83019999D03*
D19*
X172000000Y-101305000D03*
X172000000Y-104255000D03*
D17*
X120200000Y-93880000D03*
X130360000Y-93880000D03*
D19*
X164800000Y-101305000D03*
X164800000Y-104255000D03*
D41*
X132650000Y-93717500D03*
X134550000Y-93717500D03*
X133600000Y-91842500D03*
D23*
X70000000Y-61379999D03*
D24*
X72540000Y-61379999D03*
X75080000Y-61379999D03*
D23*
X52000000Y-61379999D03*
D24*
X54540000Y-61379999D03*
X57080000Y-61379999D03*
D10*
X142900000Y-60615000D03*
X142900000Y-62265000D03*
D19*
X169600000Y-101305000D03*
X169600000Y-104255000D03*
X150100000Y-101305000D03*
X150100000Y-104255000D03*
D42*
X137100000Y-83725000D03*
X137100000Y-80775000D03*
D23*
X103175000Y-92810000D03*
D24*
X100635000Y-92810000D03*
X103175000Y-90270000D03*
X100635000Y-90270000D03*
X103175000Y-87730000D03*
X100635000Y-87730000D03*
X103175000Y-85190000D03*
X100635000Y-85190000D03*
X103175000Y-82650000D03*
X100635000Y-82650000D03*
X103175000Y-80110000D03*
X100635000Y-80110000D03*
X103175000Y-77570000D03*
X100635000Y-77570000D03*
X103175000Y-75030000D03*
X100635000Y-75030000D03*
D23*
X137701666Y-70930000D03*
D24*
X137701666Y-68390000D03*
X137701666Y-65850000D03*
X137701666Y-63310000D03*
X137701666Y-60770000D03*
X137701666Y-58230000D03*
D19*
X167200000Y-101305000D03*
X167200000Y-104255000D03*
D43*
X111340000Y-81829999D03*
D44*
X128000000Y-84369999D03*
D45*
X128000000Y-81829999D03*
X128000000Y-79289999D03*
D46*
X158010000Y-93130000D03*
D47*
X158010000Y-103290000D03*
D23*
X131351666Y-71565000D03*
D24*
X128811666Y-71565000D03*
X126271666Y-71565000D03*
X123731666Y-71565000D03*
X121191666Y-71565000D03*
X118651666Y-71565000D03*
X116111666Y-71565000D03*
X113571666Y-71565000D03*
X111031666Y-71565000D03*
D48*
X137100000Y-86905000D03*
X137100000Y-85255000D03*
D23*
X182100000Y-56350000D03*
D24*
X179560000Y-56350000D03*
X177020000Y-56350000D03*
X174480000Y-56350000D03*
X171940000Y-56350000D03*
X169400000Y-56350000D03*
D23*
X182100000Y-76669999D03*
D24*
X179560000Y-76669999D03*
X177020000Y-76669999D03*
X174480000Y-76669999D03*
X171940000Y-76669999D03*
X169400000Y-76669999D03*
M02*
