M48
; DRILL file KiCad 10.0.6 date 2026-10-07T15:49:12
; FORMAT={-:-/ absolute / metric / decimal}
; #@! TF.CreationDate,2026-10-07T15:49:12+02:00
; #@! TF.GenerationSoftware,Kicad,Pcbnew,10.0.6
; #@! TF.FileFunction,Plated,1,2,PTH
FMAT,2
METRIC
; #@! TA.AperFunction,Plated,PTH,ViaDrill
T1C0.300
; #@! TA.AperFunction,Plated,PTH,ViaDrill
T2C0.400
; #@! TA.AperFunction,Plated,PTH,ComponentDrill
T3C0.710
; #@! TA.AperFunction,Plated,PTH,ComponentDrill
T4C0.750
; #@! TA.AperFunction,Plated,PTH,ComponentDrill
T5C0.800
; #@! TA.AperFunction,Plated,PTH,ComponentDrill
T6C0.950
; #@! TA.AperFunction,Plated,PTH,ComponentDrill
T7C1.000
; #@! TA.AperFunction,Plated,PTH,ComponentDrill
T8C1.100
; #@! TA.AperFunction,Plated,PTH,ComponentDrill
T9C2.300
%
G90
G05
T1
X35.0Y-58.38
X35.0Y-62.38
X35.0Y-66.38
X35.0Y-70.38
X35.0Y-74.38
X35.0Y-78.38
X35.0Y-82.38
X35.0Y-86.38
X35.0Y-90.38
X35.0Y-94.38
X35.0Y-98.38
X35.0Y-102.38
X35.0Y-106.38
X35.0Y-110.38
X37.77Y-111.53
X39.0Y-58.38
X39.0Y-62.38
X39.0Y-66.38
X39.0Y-90.38
X39.0Y-94.38
X39.0Y-98.38
X39.0Y-102.38
X39.0Y-106.38
X39.0Y-110.38
X43.0Y-58.38
X43.0Y-62.38
X43.0Y-66.38
X43.0Y-90.38
X43.0Y-94.38
X43.0Y-98.38
X43.0Y-102.38
X43.0Y-106.38
X43.0Y-110.38
X46.39Y-99.38
X47.0Y-58.38
X47.0Y-62.38
X47.0Y-67.18
X47.0Y-90.38
X47.0Y-93.58
X47.93Y-111.53
X50.2Y-58.38
X50.2Y-62.38
X50.47Y-111.53
X51.0Y-67.18
X51.0Y-78.38
X51.0Y-82.38
X51.0Y-86.38
X51.0Y-90.38
X51.0Y-93.58
X53.01Y-111.53
X55.0Y-81.58
X55.0Y-86.38
X55.0Y-90.38
X55.0Y-93.58
X55.8Y-58.38
X56.55Y-111.53
X59.0Y-58.38
X59.0Y-62.38
X59.0Y-90.38
X59.0Y-93.58
X59.09Y-102.38
X63.0Y-58.38
X63.0Y-62.38
X63.0Y-90.38
X63.0Y-93.58
X64.17Y-101.78
X67.0Y-58.38
X67.0Y-62.38
X67.0Y-65.58
X67.0Y-81.58
X67.0Y-86.38
X67.0Y-90.38
X67.0Y-93.58
X68.515Y-101.18
X69.215Y-100.58
X70.615Y-99.98
X71.79Y-111.53
X75.0Y-70.38
X76.215Y-102.98
X76.915Y-104.78
X77.615Y-105.98
X78.2Y-70.38
X78.315Y-105.38
X79.0Y-58.38
X79.0Y-62.38
X79.045Y-104.78
X83.0Y-58.38
X83.0Y-62.38
X86.03Y-111.53
X86.665Y-104.18
X87.0Y-62.38
X87.935Y-103.58
X90.2Y-82.38
X91.0Y-62.38
X91.0Y-75.18
X91.0Y-78.38
X91.745Y-65.38
X92.11Y-102.38
X93.015Y-102.98
X94.2Y-62.38
X94.65Y-107.18
X95.0Y-75.18
X95.0Y-78.38
X95.0Y-82.38
X96.825Y-105.98
X97.19Y-106.58
X98.095Y-107.78
X98.2Y-75.18
X98.2Y-78.38
X98.2Y-82.38
X99.0Y-62.38
X101.27Y-111.53
X101.905Y-68.39
X103.0Y-62.38
X103.0Y-66.38
X105.0Y-106.58
X105.6Y-107.18
X106.2Y-102.38
X106.8Y-105.38
X107.4Y-104.78
X107.8Y-62.38
X107.8Y-70.38
X108.0Y-96.38
X108.6Y-96.98
X109.2Y-99.38
X111.0Y-62.38
X111.0Y-67.18
X111.0Y-69.58
X111.0Y-91.18
X115.0Y-62.38
X115.0Y-67.18
X115.0Y-69.58
X115.8Y-93.58
X116.51Y-111.53
X119.0Y-62.38
X119.0Y-67.18
X119.0Y-69.58
X123.0Y-62.38
X123.0Y-67.18
X123.0Y-69.58
X123.0Y-89.58
X125.89Y-77.78
X127.0Y-62.38
X127.0Y-67.18
X127.0Y-69.58
X127.0Y-86.38
X128.21Y-95.78
X130.2Y-83.18
X130.2Y-86.38
X130.2Y-90.38
X130.75Y-98.78
X131.0Y-62.38
X131.0Y-67.18
X131.0Y-69.58
X131.0Y-77.58
X131.8Y-73.58
X132.75Y-111.53
X133.29Y-98.18
X135.0Y-74.38
X135.0Y-83.18
X139.37Y-110.98
X139.8Y-57.58
X140.91Y-95.18
X143.0Y-83.18
X143.0Y-85.58
X143.0Y-93.58
X143.8Y-90.38
X146.2Y-63.18
X146.2Y-83.18
X146.2Y-96.38
X146.99Y-111.53
X147.0Y-58.38
X147.0Y-90.38
X147.0Y-95.18
X147.0Y-98.38
X147.0Y-106.38
X151.0Y-58.38
X151.0Y-62.38
X151.0Y-90.38
X151.0Y-95.18
X151.0Y-106.38
X151.0Y-110.38
X151.8Y-98.38
X154.35Y-69.58
X155.0Y-58.38
X155.0Y-62.38
X155.0Y-90.38
X155.0Y-94.38
X155.0Y-98.38
X155.0Y-102.38
X155.0Y-106.38
X155.0Y-110.38
X159.0Y-59.18
X159.69Y-111.53
X159.8Y-62.38
X159.8Y-70.38
X159.8Y-106.38
X159.8Y-109.58
X162.2Y-79.18
X162.2Y-82.38
X162.23Y-111.53
X163.0Y-91.18
X163.0Y-95.18
X163.0Y-98.38
X163.0Y-106.38
X163.0Y-110.38
X163.8Y-58.38
X163.8Y-62.38
X163.8Y-66.38
X163.8Y-70.38
X163.8Y-74.38
X167.0Y-57.58
X167.0Y-95.18
X167.0Y-97.58
X167.0Y-106.38
X167.0Y-110.38
X167.8Y-62.38
X167.8Y-66.38
X167.8Y-70.38
X167.8Y-74.38
X171.0Y-62.38
X171.0Y-66.38
X171.0Y-70.38
X171.0Y-74.38
X171.0Y-82.38
X171.0Y-86.38
X171.0Y-94.38
X171.0Y-98.38
X171.0Y-106.38
X171.0Y-110.38
X175.0Y-62.38
X175.0Y-66.38
X175.0Y-70.38
X175.0Y-74.38
X175.0Y-79.18
X175.0Y-82.38
X175.0Y-86.38
X175.0Y-94.38
X175.0Y-98.38
X175.0Y-102.38
X175.0Y-106.38
X175.0Y-110.38
X175.8Y-58.38
X178.2Y-58.38
X179.0Y-62.38
X179.0Y-66.38
X179.0Y-70.38
X179.0Y-73.58
X179.0Y-79.18
X179.0Y-86.38
X179.0Y-90.38
X179.0Y-102.38
X179.0Y-106.38
X179.0Y-110.38
X183.0Y-62.38
X183.0Y-66.38
X183.0Y-70.38
X183.0Y-73.58
X183.0Y-79.18
X183.0Y-82.38
X183.0Y-86.38
X183.0Y-90.38
X183.0Y-94.38
X183.0Y-102.38
X183.0Y-106.38
X183.0Y-110.38
X187.0Y-58.38
X187.0Y-62.38
X187.0Y-66.38
X187.0Y-70.38
X187.0Y-74.38
X187.0Y-78.38
X187.0Y-82.38
X187.0Y-86.38
X187.0Y-90.38
X187.0Y-94.38
X187.0Y-102.38
X187.0Y-106.38
X187.0Y-110.38
T2
X85.395Y-58.23
X86.595Y-58.23
X110.4Y-92.88
X136.3Y-74.08
X159.95Y-76.78
T3
X164.5Y-83.06
X169.6Y-84.26
T4
X136.87Y-93.38
X138.14Y-93.38
X139.41Y-93.38
T5
X120.2Y-93.88
X130.36Y-93.88
X133.75Y-81.1
X133.75Y-86.1
X141.0Y-82.58
X141.0Y-84.58
X148.85Y-93.13
X151.35Y-93.13
X165.45Y-93.13
X168.95Y-93.13
T6
X176.81Y-85.28
X176.81Y-87.78
X176.81Y-89.78
X176.81Y-92.28
T7
X52.0Y-61.38
X54.54Y-61.38
X57.08Y-61.38
X70.0Y-61.38
X72.54Y-61.38
X75.08Y-61.38
X80.315Y-69.95
X80.315Y-72.49
X80.315Y-75.03
X80.315Y-77.57
X80.315Y-80.11
X80.315Y-82.65
X80.315Y-85.19
X80.315Y-87.73
X80.315Y-90.27
X80.315Y-92.81
X82.855Y-69.95
X82.855Y-72.49
X82.855Y-75.03
X82.855Y-77.57
X82.855Y-80.11
X82.855Y-82.65
X82.855Y-85.19
X82.855Y-87.73
X82.855Y-90.27
X82.855Y-92.81
X85.395Y-69.95
X85.395Y-72.49
X85.395Y-90.27
X85.395Y-92.81
X87.935Y-69.95
X87.935Y-72.49
X87.935Y-90.27
X87.935Y-92.81
X90.475Y-69.95
X90.475Y-72.49
X90.475Y-90.27
X90.475Y-92.81
X93.015Y-69.95
X93.015Y-72.49
X93.015Y-90.27
X93.015Y-92.81
X95.555Y-69.95
X95.555Y-72.49
X95.555Y-90.27
X95.555Y-92.81
X98.095Y-69.95
X98.095Y-72.49
X98.095Y-90.27
X98.095Y-92.81
X100.635Y-69.95
X100.635Y-72.49
X100.635Y-75.03
X100.635Y-77.57
X100.635Y-80.11
X100.635Y-82.65
X100.635Y-85.19
X100.635Y-87.73
X100.635Y-90.27
X100.635Y-92.81
X103.175Y-69.95
X103.175Y-72.49
X103.175Y-75.03
X103.175Y-77.57
X103.175Y-80.11
X103.175Y-82.65
X103.175Y-85.19
X103.175Y-87.73
X103.175Y-90.27
X103.175Y-92.81
X111.032Y-71.565
X113.572Y-71.565
X116.112Y-71.565
X118.652Y-71.565
X121.192Y-71.565
X123.732Y-71.565
X126.272Y-71.565
X128.812Y-71.565
X131.352Y-71.565
X137.702Y-58.23
X137.702Y-60.77
X137.702Y-63.31
X137.702Y-65.85
X137.702Y-68.39
X137.702Y-70.93
X144.998Y-74.08
X147.538Y-74.08
X148.17Y-80.48
X148.17Y-83.02
X150.078Y-74.08
X150.71Y-80.48
X150.71Y-83.02
X152.618Y-74.08
X153.25Y-80.48
X153.25Y-83.02
X155.158Y-74.08
X155.79Y-80.48
X155.79Y-83.02
X157.698Y-74.08
X158.33Y-80.48
X158.33Y-83.02
X169.4Y-56.35
X169.4Y-76.67
X171.94Y-56.35
X171.94Y-76.67
X174.48Y-56.35
X174.48Y-76.67
X177.02Y-56.35
X177.02Y-76.67
X179.56Y-56.35
X179.56Y-76.67
X182.1Y-56.35
X182.1Y-76.67
T8
X128.0Y-79.29
X128.0Y-81.83
X128.0Y-84.37
X158.01Y-93.13
X158.01Y-103.29
T9
X179.52Y-82.21
X179.52Y-95.35
M30
